<svg xmlns="http://www.w3.org/2000/svg" width="22" height="22" viewBox="0 0 22 22">
  <g id="Group_94" data-name="Group 94" transform="translate(-183 -388)">
    <g id="Group_83" data-name="Group 83" transform="translate(-0.035 212.621)">
      <g id="Group_78" data-name="Group 78" transform="translate(190.035 181.379)">
        <g id="Polygon_4" data-name="Polygon 4" transform="translate(3.965 -1) rotate(90)" fill="none" stroke-linecap="round" stroke-linejoin="round">
          <path d="M4.986.727a1,1,0,0,1,1.427,0L9.729,4.1a1,1,0,0,1-.714,1.7H2.383A1,1,0,0,1,1.67,4.1Z" stroke="none"/>
          <path d="M 5.699465274810791 2.854534149169922 L 4.766934871673584 3.804199457168579 L 6.631999015808105 3.804199457168579 L 5.699465274810791 2.854534149169922 M 5.69946813583374 0.4272670745849609 C 5.958239555358887 0.4272670745849609 6.217009544372559 0.5270543098449707 6.412979602813721 0.7266297340393066 L 9.728989601135254 4.103559494018555 C 10.35011959075928 4.736109733581543 9.901989936828613 5.804199695587158 9.015469551086426 5.804199695587158 L 2.383469581604004 5.804199695587158 C 1.496949195861816 5.804199695587158 1.048819541931152 4.736109733581543 1.669949531555176 4.103559494018555 L 4.985949516296387 0.7266297340393066 C 5.181924343109131 0.5270543098449707 5.440697193145752 0.4272670745849609 5.69946813583374 0.4272670745849609 Z" stroke="none" fill="#fff"/>
        </g>
        <g id="Polygon_3" data-name="Polygon 3" transform="translate(3.965 10.399) rotate(-90)" fill="none" stroke-linecap="round" stroke-linejoin="round">
          <path d="M4.986.727a1,1,0,0,1,1.427,0L9.729,4.1a1,1,0,0,1-.714,1.7H2.383A1,1,0,0,1,1.67,4.1Z" stroke="none"/>
          <path d="M 5.699465274810791 2.854534149169922 L 4.766934871673584 3.804199457168579 L 6.631999015808105 3.804199457168579 L 5.699465274810791 2.854534149169922 M 5.69946813583374 0.4272670745849609 C 5.958239555358887 0.4272670745849609 6.217009544372559 0.5270543098449707 6.412979602813721 0.7266297340393066 L 9.728989601135254 4.103559494018555 C 10.35011959075928 4.736109733581543 9.901989936828613 5.804199695587158 9.015469551086426 5.804199695587158 L 2.383469581604004 5.804199695587158 C 1.496949195861816 5.804199695587158 1.048819541931152 4.736109733581543 1.669949531555176 4.103559494018555 L 4.985949516296387 0.7266297340393066 C 5.181924343109131 0.5270543098449707 5.440697193145752 0.4272670745849609 5.69946813583374 0.4272670745849609 Z" stroke="none" fill="#fff"/>
        </g>
        <line id="Line_50" data-name="Line 50" y2="11.399" transform="translate(3.965 -1)" fill="none" stroke="#fff" stroke-linecap="round" stroke-width="2"/>
      </g>
    </g>
    <g id="Rectangle_109" data-name="Rectangle 109" transform="translate(183 388)" fill="none" stroke="#fff" stroke-width="2">
      <rect width="22" height="22" rx="5" stroke="none"/>
      <rect x="1" y="1" width="20" height="20" rx="4" fill="none"/>
    </g>
  </g>
</svg>
